<svg xmlns="http://www.w3.org/2000/svg" width="671.786" height="671.786" viewBox="0 0 671.786 671.786"><g transform="translate(0 671.786)"><path d="M335.894-671.786c-91.224,0-102.662.387-138.489,2.021-35.752,1.631-60.169,7.309-81.535,15.612A164.654,164.654,0,0,0,56.376-615.41a164.647,164.647,0,0,0-38.743,59.495c-8.3,21.365-13.981,45.783-15.613,81.534C.386-438.555,0-427.116,0-335.892S.386-233.231,2.021-197.4c1.632,35.752,7.31,60.169,15.613,81.534A164.658,164.658,0,0,0,56.376-56.376,164.652,164.652,0,0,0,115.87-17.633c21.366,8.3,45.783,13.981,81.535,15.612C233.231-.387,244.67,0,335.894,0S438.555-.387,474.382-2.021c35.752-1.631,60.169-7.309,81.534-15.612A164.66,164.66,0,0,0,615.41-56.376a164.662,164.662,0,0,0,38.743-59.495c8.3-21.365,13.981-45.782,15.612-81.534,1.635-35.827,2.021-47.265,2.021-138.488s-.387-102.662-2.021-138.489c-1.631-35.752-7.309-60.169-15.612-81.534A164.651,164.651,0,0,0,615.41-615.41a164.662,164.662,0,0,0-59.495-38.743c-21.365-8.3-45.783-13.981-81.534-15.612-35.827-1.635-47.265-2.021-138.488-2.021Zm0,60.521c89.686,0,100.31.343,135.729,1.959,32.749,1.493,50.535,6.965,62.371,11.565,15.679,6.093,26.868,13.372,38.621,25.125s19.033,22.944,25.127,38.623c4.6,11.836,10.072,29.621,11.565,62.371,1.616,35.419,1.959,46.043,1.959,135.73s-.343,100.31-1.959,135.729c-1.493,32.749-6.965,50.535-11.565,62.371-6.093,15.679-13.372,26.868-25.127,38.621s-22.943,19.033-38.621,25.126c-11.836,4.6-29.621,10.072-62.371,11.565-35.413,1.616-46.036,1.959-135.729,1.959s-100.316-.343-135.73-1.959c-32.749-1.493-50.535-6.965-62.371-11.565-15.679-6.093-26.868-13.372-38.621-25.126s-19.033-22.943-25.126-38.621c-4.6-11.836-10.071-29.621-11.566-62.371-1.616-35.419-1.958-46.043-1.958-135.729s.342-100.312,1.958-135.73c1.494-32.749,6.966-50.535,11.566-62.371,6.093-15.679,13.372-26.868,25.126-38.621s22.943-19.033,38.622-25.127c11.836-4.6,29.621-10.072,62.371-11.565,35.419-1.616,46.043-1.959,135.73-1.959" fill="#636262"/><path d="M335.894-223.929A111.964,111.964,0,0,1,223.929-335.892,111.964,111.964,0,0,1,335.894-447.858,111.964,111.964,0,0,1,447.858-335.892,111.964,111.964,0,0,1,335.894-223.929Zm0-284.45A172.485,172.485,0,0,0,163.408-335.892,172.485,172.485,0,0,0,335.894-163.408,172.485,172.485,0,0,0,508.379-335.892,172.485,172.485,0,0,0,335.894-508.379" fill="#636262"/><path d="M555.5-515.193a40.307,40.307,0,0,1-40.308,40.307,40.307,40.307,0,0,1-40.307-40.307A40.308,40.308,0,0,1,515.193-555.5,40.308,40.308,0,0,1,555.5-515.193" fill="#636262"/></g></svg>
