<svg xmlns="http://www.w3.org/2000/svg" width="18.989" height="15.43" viewBox="0 0 18.989 15.43"><path d="M80.972,113.88a11.01,11.01,0,0,0,11.085-11.085c0-.169,0-.336-.011-.5a7.927,7.927,0,0,0,1.944-2.017,7.776,7.776,0,0,1-2.238.613,3.909,3.909,0,0,0,1.713-2.155,7.807,7.807,0,0,1-2.474.946,3.9,3.9,0,0,0-6.639,3.553,11.061,11.061,0,0,1-8.029-4.07,3.9,3.9,0,0,0,1.206,5.2,3.867,3.867,0,0,1-1.768-.488v.049a3.9,3.9,0,0,0,3.126,3.819,3.889,3.889,0,0,1-1.759.067,3.9,3.9,0,0,0,3.64,2.706,7.817,7.817,0,0,1-4.838,1.671A7.929,7.929,0,0,1,75,112.13a11.03,11.03,0,0,0,5.972,1.747" transform="translate(-75 -98.45)" fill="#636262"/></svg>