<svg xmlns="http://www.w3.org/2000/svg" width="21.039" height="19.935" viewBox="0 0 21.039 19.935"><g transform="translate(-27.129 -32.006)"><path d="M36.771,51.75a3.972,3.972,0,0,1,.056-1.079c.132-.908.076-1.284-.231-1.538a6.193,6.193,0,0,0-1.343-.376c-4.158-.845-7.064-3.275-7.92-6.622A7.5,7.5,0,0,1,30.191,34.5a13.415,13.415,0,0,1,3.658-1.927,15.408,15.408,0,0,1,3.795-.571,15.409,15.409,0,0,1,3.795.571,14.447,14.447,0,0,1,1.869.8,8.479,8.479,0,0,1,4.646,5.493c.741,2.9-.433,5.634-3.592,8.366-2.278,1.97-6.508,4.709-7.273,4.709a.356.356,0,0,1-.318-.191Zm-3.042-8.529a.386.386,0,0,0,.291-.43c0-.5-.183-.592-1.155-.592h-.884V40.311c0-1.6-.029-1.92-.187-2.1a.456.456,0,0,0-.738-.02c-.187.17-.207.4-.207,2.414,0,2.269.039,2.5.453,2.644a8.927,8.927,0,0,0,2.428-.032Zm1.848-.21a7.726,7.726,0,0,0,.142-2.338c0-1.773-.032-2.207-.176-2.414a.441.441,0,0,0-.749-.064c-.188.17-.207.4-.207,2.486,0,2.211.009,2.3.239,2.466A.512.512,0,0,0,35.577,43.011ZM37.506,41.7a6.364,6.364,0,0,1,.113-1.428,14.222,14.222,0,0,1,1.142,1.463,8.491,8.491,0,0,0,1.267,1.513.628.628,0,0,0,.44-.11c.223-.156.234-.268.234-2.471,0-1.947-.028-2.335-.178-2.486-.22-.22-.394-.225-.678-.018-.19.139-.228.343-.276,1.5l-.057,1.34L38.45,39.568a9.044,9.044,0,0,0-1.27-1.507.659.659,0,0,0-.438.058c-.221.118-.231.225-.231,2.492,0,2.283.009,2.374.24,2.536a.51.51,0,0,0,.481.079C37.46,43.142,37.476,43.049,37.506,41.7Zm6.909,1.451a.564.564,0,0,0,.25-.368c0-.433-.2-.53-1.155-.588l-.939-.057v-.906l.961-.057c.926-.055.964-.068,1.07-.37.18-.514-.111-.7-1.185-.746l-.9-.041v-.882h.869c1.158,0,1.6-.371,1.1-.926-.159-.175-.368-.207-1.367-.207a5.612,5.612,0,0,0-1.4.117c-.206.11-.219.26-.219,2.486,0,2.865-.084,2.721,1.586,2.721a2.628,2.628,0,0,0,1.334-.176Z" fill="#636262"/></g></svg>